<svg version="1.1" xmlns="http://www.w3.org/2000/svg" viewBox="0 0 1024 1024">
  <!-- Outer eye filled black -->
  <path fill="#000" d="M934.430542,542.396606 C913.661011,571.345459 890.246277,597.452820 864.537964,621.591980 C837.600830,646.885193 808.526733,669.322510 777.122009,688.771606 C729.239380,718.425476 677.742615,739.101318 622.768555,751.267578 C581.756592,760.343872 540.238770,764.144226 498.312347,762.928223 C465.142426,761.966187 432.332642,757.727295 399.957947,750.224121 C330.950256,734.230835 268.421082,704.474243 211.882507,661.960327 C143.824554,610.784485 89.849678,547.569885 49.817219,472.403229 C47.315289,467.705536 47.386532,464.189850 50.241444,459.591156 C77.591965,415.535004 110.830727,376.476715 149.300446,341.794312 C183.745880,310.740021 221.446747,284.299072 262.372192,262.517731 C313.940948,235.071808 368.589722,216.424042 426.216949,206.955460 C468.081879,200.076767 510.224884,198.476852 552.629883,201.469208 C600.438660,204.842880 646.791870,214.523148 691.908752,230.544342 C751.351135,251.652542 805.516296,282.181213 854.500366,321.827728 C900.571594,359.116608 939.889648,402.558350 971.885559,452.531372 C973.143127,454.495605 974.177429,456.628082 975.611206,458.449615 C979.749573,463.707092 979.360168,468.749756 976.327759,474.571564 C964.068298,498.107880 950.482300,520.795410 934.430542,542.396606 Z"></path>

  <!-- Inner eye filled white -->
  <path fill="#fff" d="M847.345459,439.681885 C858.334778,452.471130 868.600647,465.369354 877.722900,479.147461 C883.986633,488.608093 883.975098,490.500153 877.737488,499.718781 C854.004333,534.794312 824.924805,564.846252 791.826721,591.113098 C737.631348,634.122925 676.467468,662.380615 608.921448,676.787476 C574.615723,684.104492 539.826294,687.575134 504.738220,686.092773 C444.087952,683.530518 386.423981,668.540283 331.457092,642.989014 C274.720001,616.614929 224.993317,580.534424 182.325638,534.761719 C170.838181,522.438293 160.349289,509.291534 150.226608,495.826416 C146.352097,490.672546 146.217117,485.958344 149.576279,480.684753 C159.532288,465.054657 170.743134,450.383759 182.873886,436.386108 C229.728760,382.320648 286.354675,341.574097 351.853760,313.191864 C386.066833,298.366547 421.796753,288.654144 458.805145,283.475739 C491.322937,278.925690 523.848938,278.298859 556.414124,281.939667 C592.972229,286.026825 628.325867,295.076111 662.645508,308.431122 C702.059631,323.768646 738.150574,344.817230 772.037231,369.958374 C799.598511,390.406616 824.300110,413.870911 847.345459,439.681885 Z"></path>

  <!-- Buildings on top -->
  <g id="buildings">
    <path fill="#000" d="M368.238464,526.500000 C368.239502,532.164551 368.242523,537.829041 368.241119,543.493591 C368.233917,572.814880 368.304382,602.136597 368.147156,631.457092 C368.117798,636.931458 370.043701,640.324341 375.395844,641.807617 C415.550659,655.397644 446.579620,661.953003 478.253723,665.560547 C486.358398,666.483704 486.751678,666.188904 486.751404,659.664978 C486.746979,546.211548 486.737976,432.758087 486.715698,319.304626 C486.713776,309.481201 481.224274,306.128052 472.395691,310.410553 C440.933960,325.671692 409.531158,341.057648 377.935028,356.035583 C370.930786,359.355896 368.135773,363.898102 368.163757,371.563507 C368.350922,422.875092 368.247467,474.187714 368.238464,526.500000 Z"></path>
    <path fill="#000" d="M588.060974,531.514893 C597.091797,527.236694 606.094666,522.897766 615.170837,518.717896 C617.812988,517.501099 618.758301,515.765442 618.740540,512.882141 C618.642151,496.886261 618.684814,480.889313 618.726440,464.892883 C618.739319,459.953827 616.346313,456.675262 611.935669,454.830444 C583.364441,442.879944 554.787781,430.942047 526.188110,419.059662 C519.394104,416.236877 514.324402,419.930054 514.528870,427.388672 C514.647522,431.715057 514.941650,436.041351 514.915405,440.366211 C514.799438,459.510834 514.451965,478.655090 514.476807,497.799133 C514.492371,509.785156 514.714661,521.769897 514.716675,533.757629 C514.718323,543.406494 513.973633,553.051941 514.523865,562.713989 C515.708313,583.513977 513.986633,604.323853 514.537781,625.134094 C514.876953,637.942261 515.324219,650.758972 514.654602,663.572083 C514.501038,666.511353 515.626282,667.640869 518.690796,667.716492 C534.210571,668.099243 549.596924,666.326050 565.033569,665.274109 C570.364807,664.910828 571.773132,662.867188 571.736084,657.564514 C571.483276,621.407532 571.677490,585.247620 571.552429,549.089294 C571.527832,541.974670 574.873352,537.492859 580.933655,534.570862 C583.032104,533.559021 585.210205,532.712402 588.060974,531.514893 Z"></path>
    <path fill="#000" d="M703.405212,503.382385 C699.212524,498.312469 696.083984,497.408691 690.428101,500.059387 C663.002258,512.913086 635.596191,525.809265 608.209656,538.746704 C602.639343,541.378113 600.371033,546.027710 600.383545,552.102173 C600.444397,581.742371 600.424805,611.382812 600.433044,641.023132 C600.434692,646.965698 600.433289,652.908325 600.433289,658.828857 C601.721130,659.014404 602.210510,659.197937 602.661804,659.129700 C604.304932,658.880920 605.941101,658.576477 607.569580,658.242371 C638.330688,651.931458 667.946716,642.064575 696.748047,629.630127 C704.152161,626.433533 704.794373,625.771667 704.793884,617.823608 C704.791687,581.855469 704.762268,545.887390 704.748169,509.919250 C704.747375,507.915039 704.796753,505.910706 703.405212,503.382385 Z"></path>
  </g>
</svg>